<svg width="34" height="34" viewBox="0 0 34 34" fill="none" xmlns="http://www.w3.org/2000/svg">
<g id="users-02">
<path id="union-1" fill-rule="evenodd" clip-rule="evenodd" d="M7.35157 4.87408C8.81461 4.20704 10.4642 4.06984 12.0173 4.486C12.773 4.6885 13.2215 5.46531 13.019 6.22106C12.8165 6.9768 12.0397 7.42529 11.284 7.22279C10.3662 6.97688 9.39148 7.05795 8.52695 7.45211C7.66243 7.84627 6.96198 8.52895 6.54575 9.38306C6.12952 10.2372 6.02343 11.2095 6.24569 12.1333C6.46795 13.0571 7.00471 13.8747 7.7639 14.446C8.17577 14.756 8.38679 15.2652 8.31488 15.7756C8.24298 16.286 7.8995 16.7171 7.41803 16.9012C6.45563 17.2692 5.57152 17.8376 4.82894 18.5802C4.57877 18.8304 4.34842 19.0965 4.13886 19.3763C3.7022 19.9593 3.73067 20.4476 3.96047 20.8849C4.23182 21.4013 4.85533 21.9367 5.73729 22.2141C6.48363 22.4489 6.89834 23.2443 6.66356 23.9906C6.42879 24.737 5.63343 25.1517 4.88708 24.9169C3.43952 24.4615 2.13796 23.5076 1.45236 22.2029C0.7252 20.8192 0.764832 19.1547 1.87114 17.6777C2.16103 17.2907 2.47962 16.9226 2.82547 16.5767C3.35872 16.0435 3.94478 15.5752 4.57134 15.1769C4.06702 14.4643 3.69821 13.6574 3.49097 12.7961C3.11484 11.2328 3.29436 9.58728 3.99876 8.14185C4.70315 6.69642 5.88852 5.54112 7.35157 4.87408ZM25.4726 7.45211C24.608 7.05795 23.6333 6.97688 22.7155 7.22279C21.9598 7.42529 21.183 6.9768 20.9805 6.22106C20.778 5.46531 21.2265 4.6885 21.9822 4.486C23.5354 4.06984 25.1849 4.20704 26.648 4.87408C28.111 5.54111 29.2964 6.69642 30.0008 8.14185C30.7052 9.58728 30.8847 11.2328 30.5085 12.7961C30.3013 13.6574 29.9325 14.4643 29.4282 15.1769C30.0547 15.5752 30.6408 16.0435 31.174 16.5767C31.5199 16.9226 31.8385 17.2907 32.1284 17.6777C33.2347 19.1547 33.2743 20.8192 32.5472 22.2029C31.8616 23.5076 30.56 24.4615 29.1124 24.9169C28.3661 25.1517 27.5707 24.737 27.336 23.9906C27.1012 23.2443 27.5159 22.4489 28.2622 22.2141C29.1442 21.9367 29.7677 21.4013 30.039 20.8849C30.2688 20.4476 30.2973 19.9593 29.8607 19.3763C29.6511 19.0965 29.4207 18.8304 29.1706 18.5802C28.428 17.8376 27.5439 17.2692 26.5815 16.9012C26.1 16.7171 25.7565 16.286 25.6846 15.7756C25.6127 15.2652 25.8237 14.756 26.2356 14.446C26.9948 13.8747 27.5316 13.0571 27.7538 12.1333C27.9761 11.2095 27.87 10.2372 27.4538 9.38306C27.0375 8.52895 26.3371 7.84627 25.4726 7.45211ZM16.9999 9.91667C14.7397 9.91667 12.9073 11.749 12.9073 14.0093C12.9073 16.2696 14.7397 18.1019 17 18.1019C19.2602 18.1019 21.0925 16.2696 21.0925 14.0093C21.0925 11.749 19.2602 9.91667 16.9999 9.91667ZM21.5948 19.1917C23.0247 17.9229 23.9259 16.0713 23.9259 14.0093C23.9259 10.1842 20.825 7.08333 16.9999 7.08333C13.1749 7.08333 10.074 10.1842 10.074 14.0093C10.074 16.0713 10.9752 17.9229 12.4051 19.1917C11.4379 19.6778 10.5451 20.3188 9.76522 21.0987C9.41937 21.4445 9.10078 21.8126 8.81088 22.1997C8.16116 23.0671 7.85521 24.0339 7.90908 25.0095C7.96213 25.9702 8.35727 26.8302 8.92218 27.5246C10.0338 28.8909 11.8978 29.7501 13.8518 29.7501H20.1481C22.1022 29.7501 23.9661 28.8909 25.0778 27.5246C25.6427 26.8302 26.0378 25.9702 26.0909 25.0095C26.1447 24.0339 25.8388 23.0671 25.1891 22.1997C24.8992 21.8126 24.5806 21.4445 24.2347 21.0987C23.4549 20.3188 22.5621 19.6778 21.5948 19.1917ZM17 20.9353C15.0379 20.9353 13.1561 21.7147 11.7687 23.1021C11.5185 23.3523 11.2882 23.6185 11.0786 23.8983C10.7902 24.2833 10.7243 24.6033 10.7381 24.8533C10.7527 25.1183 10.8648 25.4228 11.12 25.7365C11.6486 26.3861 12.6763 26.9167 13.8518 26.9167H20.1481C21.3237 26.9167 22.3514 26.3861 22.8799 25.7365C23.1351 25.4228 23.2472 25.1183 23.2618 24.8533C23.2756 24.6033 23.2097 24.2833 22.9213 23.8983C22.7118 23.6185 22.4814 23.3523 22.2312 23.1021C20.8438 21.7147 18.9621 20.9353 17 20.9353Z" fill="black"/>
</g>
</svg>
