<svg width="34" height="34" viewBox="0 0 34 34" fill="none" xmlns="http://www.w3.org/2000/svg">
<g id="Settings" clip-path="url(#clip0_87_154)">
<g id="Icon">
<path d="M17 21.25C19.3472 21.25 21.25 19.3472 21.25 17C21.25 14.6527 19.3472 12.75 17 12.75C14.6528 12.75 12.75 14.6527 12.75 17C12.75 19.3472 14.6528 21.25 17 21.25Z" stroke="black" stroke-width="3" stroke-linecap="round" stroke-linejoin="round"/>
<path d="M27.4834 21.25C27.2948 21.6772 27.2385 22.1512 27.3218 22.6108C27.4052 23.0704 27.6243 23.4944 27.9509 23.8283L28.0359 23.9133C28.2993 24.1764 28.5083 24.4889 28.6509 24.8329C28.7934 25.1768 28.8668 25.5455 28.8668 25.9179C28.8668 26.2902 28.7934 26.6589 28.6509 27.0029C28.5083 27.3468 28.2993 27.6593 28.0359 27.9225C27.7727 28.1859 27.4602 28.3949 27.1163 28.5375C26.7723 28.68 26.4036 28.7534 26.0313 28.7534C25.6589 28.7534 25.2902 28.68 24.9463 28.5375C24.6023 28.3949 24.2898 28.1859 24.0267 27.9225L23.9417 27.8375C23.6078 27.5109 23.1837 27.2918 22.7242 27.2085C22.2646 27.1251 21.7906 27.1814 21.3634 27.37C20.9443 27.5495 20.587 27.8477 20.3353 28.2278C20.0836 28.6079 19.9485 29.0533 19.9467 29.5091V29.75C19.9467 30.5014 19.6482 31.2221 19.1168 31.7534C18.5855 32.2848 17.8648 32.5833 17.1134 32.5833C16.3619 32.5833 15.6412 32.2848 15.1099 31.7534C14.5785 31.2221 14.28 30.5014 14.28 29.75V29.6225C14.2691 29.1535 14.1173 28.6988 13.8444 28.3173C13.5715 27.9358 13.1902 27.6452 12.75 27.4833C12.3227 27.2947 11.8487 27.2385 11.3892 27.3218C10.9296 27.4051 10.5056 27.6242 10.1717 27.9508L10.0867 28.0358C9.82355 28.2992 9.51106 28.5082 9.1671 28.6508C8.82314 28.7934 8.45445 28.8668 8.0821 28.8668C7.70976 28.8668 7.34107 28.7934 6.99711 28.6508C6.65314 28.5082 6.34066 28.2992 6.07752 28.0358C5.81409 27.7727 5.6051 27.4602 5.46252 27.1162C5.31993 26.7722 5.24654 26.4036 5.24654 26.0312C5.24654 25.6589 5.31993 25.2902 5.46252 24.9462C5.6051 24.6022 5.81409 24.2898 6.07752 24.0266L6.16252 23.9416C6.48911 23.6077 6.7082 23.1837 6.79153 22.7241C6.87485 22.2646 6.8186 21.7906 6.63002 21.3633C6.45044 20.9443 6.15226 20.5869 5.77218 20.3352C5.3921 20.0835 4.94672 19.9484 4.49085 19.9466H4.25002C3.49857 19.9466 2.7779 19.6481 2.24655 19.1168C1.7152 18.5854 1.41669 17.8647 1.41669 17.1133C1.41669 16.3618 1.7152 15.6412 2.24655 15.1098C2.7779 14.5785 3.49857 14.28 4.25002 14.28H4.37752C4.84643 14.269 5.30119 14.1172 5.68269 13.8443C6.06419 13.5715 6.35478 13.1902 6.51669 12.75C6.70527 12.3227 6.76152 11.8487 6.67819 11.3891C6.59487 10.9296 6.37578 10.5055 6.04919 10.1716L5.96419 10.0866C5.70075 9.82349 5.49177 9.511 5.34918 9.16704C5.2066 8.82308 5.13321 8.45439 5.13321 8.08204C5.13321 7.7097 5.2066 7.34101 5.34918 6.99704C5.49177 6.65308 5.70075 6.3406 5.96419 6.07746C6.22733 5.81403 6.53981 5.60504 6.88377 5.46246C7.22773 5.31987 7.59643 5.24648 7.96877 5.24648C8.34111 5.24648 8.70981 5.31987 9.05377 5.46246C9.39773 5.60504 9.71021 5.81403 9.97335 6.07746L10.0584 6.16246C10.3922 6.48905 10.8163 6.70814 11.2759 6.79147C11.7354 6.87479 12.2094 6.81854 12.6367 6.62996H12.75C13.169 6.45038 13.5264 6.1522 13.7781 5.77212C14.0298 5.39204 14.1649 4.94666 14.1667 4.49079V4.24996C14.1667 3.49851 14.4652 2.77784 14.9966 2.24649C15.5279 1.71514 16.2486 1.41663 17 1.41663C17.7515 1.41663 18.4721 1.71514 19.0035 2.24649C19.5348 2.77784 19.8334 3.49851 19.8334 4.24996V4.37746C19.8352 4.83332 19.9702 5.27871 20.222 5.65879C20.4737 6.03886 20.831 6.33704 21.25 6.51663C21.6773 6.70521 22.1513 6.76146 22.6109 6.67813C23.0704 6.59481 23.4945 6.37572 23.8284 6.04913L23.9134 5.96413C24.1765 5.70069 24.489 5.49171 24.8329 5.34912C25.1769 5.20654 25.5456 5.13315 25.9179 5.13315C26.2903 5.13315 26.659 5.20654 27.0029 5.34912C27.3469 5.49171 27.6594 5.70069 27.9225 5.96413C28.186 6.22727 28.3949 6.53975 28.5375 6.88371C28.6801 7.22767 28.7535 7.59637 28.7535 7.96871C28.7535 8.34105 28.6801 8.70975 28.5375 9.05371C28.3949 9.39767 28.186 9.71015 27.9225 9.97329L27.8375 10.0583C27.5109 10.3922 27.2918 10.8162 27.2085 11.2758C27.1252 11.7354 27.1814 12.2093 27.37 12.6366V12.75C27.5496 13.169 27.8478 13.5263 28.2279 13.778C28.6079 14.0297 29.0533 14.1648 29.5092 14.1666H29.75C30.5015 14.1666 31.2221 14.4651 31.7535 14.9965C32.2848 15.5278 32.5834 16.2485 32.5834 17C32.5834 17.7514 32.2848 18.4721 31.7535 19.0034C31.2221 19.5348 30.5015 19.8333 29.75 19.8333H29.6225C29.1667 19.8351 28.7213 19.9702 28.3412 20.2219C27.9611 20.4736 27.6629 20.831 27.4834 21.25Z" stroke="black" stroke-width="3" stroke-linecap="round" stroke-linejoin="round"/>
</g>
</g>
<defs>
<clipPath id="clip0_87_154">
<rect width="34" height="34" fill="white"/>
</clipPath>
</defs>
</svg>
